<?xml version="1.0" encoding="UTF-8"?> <svg xmlns="http://www.w3.org/2000/svg" id="Branches" viewBox="0 0 330.02 522.29"><defs><style>.cls-1{fill:#ae3d95;}.cls-2{fill:#376db4;}.cls-3{fill:#48bc96;}.cls-4{fill:#b9c0c3;}.cls-5{fill:#3babc8;}.cls-6{fill:#7e4298;}.cls-7{fill:none;}</style></defs><path class="cls-1" d="M232.62,464H120.27v-3H232.62a11.94,11.94,0,0,0,11.92-11.92V344.91h3V449.08A15,15,0,0,1,232.62,464Z"></path><polygon class="cls-1" points="238.75 345.89 253.33 345.89 246.04 338.6 238.75 345.89"></polygon><path class="cls-2" d="M131.12,464H74.65v-3h56.47A11.94,11.94,0,0,0,143,449.08V390.36h3v58.72A15,15,0,0,1,131.12,464Z"></path><polygon class="cls-2" points="137.25 391.34 151.83 391.34 144.54 384.05 137.25 391.34"></polygon><rect class="cls-3" x="41.54" y="336.77" width="3" height="114.12"></rect><rect class="cls-3" x="41.54" y="292.24" width="3" height="23.34"></rect><rect class="cls-3" x="41.54" y="473" width="3" height="31.68"></rect><rect class="cls-3" x="41.54" y="245.88" width="3" height="23.69"></rect><rect class="cls-3" x="41.54" y="155.86" width="3" height="67.64"></rect><rect class="cls-3" x="41.54" y="64.01" width="3" height="69.71"></rect><path class="cls-4" d="M4.23,522.15l-2.4-7.84H1.76c.09,1.59.13,2.66.13,3.19v4.65H0v-10H2.88l2.37,7.64h0l2.51-7.64h2.88v10h-2v-4.73c0-.22,0-.48,0-.77s0-1.07.09-2.33H8.75l-2.58,7.83Z"></path><path class="cls-4" d="M17.89,522.15l-.4-1h-.06a3.09,3.09,0,0,1-1.08.92,3.52,3.52,0,0,1-1.45.26,2.35,2.35,0,0,1-1.74-.63,2.43,2.43,0,0,1-.63-1.79,2,2,0,0,1,.85-1.8,5,5,0,0,1,2.57-.64l1.32,0v-.33a1,1,0,0,0-1.19-1.17,5.44,5.44,0,0,0-2.15.56L13.24,515a6.24,6.24,0,0,1,2.93-.69,3.65,3.65,0,0,1,2.36.67,2.51,2.51,0,0,1,.82,2v5.09Zm-.62-3.54-.8,0a2.54,2.54,0,0,0-1.36.32,1,1,0,0,0-.44.92c0,.59.34.88,1,.88a1.64,1.64,0,0,0,1.16-.41,1.47,1.47,0,0,0,.43-1.11Z"></path><path class="cls-4" d="M21.4,512.53q0-1,1.14-1c.75,0,1.13.34,1.13,1a1,1,0,0,1-.28.76,1.19,1.19,0,0,1-.85.27C21.78,513.56,21.4,513.22,21.4,512.53Zm2.18,9.62H21.49v-7.64h2.09Z"></path><path class="cls-4" d="M32.82,522.15H30.73v-4.46a2.14,2.14,0,0,0-.29-1.25,1.09,1.09,0,0,0-.94-.41,1.41,1.41,0,0,0-1.26.59,3.6,3.6,0,0,0-.39,1.93v3.6H25.76v-7.64h1.6l.28,1h.11a2.35,2.35,0,0,1,1-.83,3.3,3.3,0,0,1,1.4-.29,2.65,2.65,0,0,1,2,.73,2.88,2.88,0,0,1,.69,2.08Z"></path><path class="cls-4" d="M38.77,512.16h3.11a6,6,0,0,1,3.08.6,2.11,2.11,0,0,1,1,1.92,2.42,2.42,0,0,1-.42,1.47,1.67,1.67,0,0,1-1.11.7v.06a2.24,2.24,0,0,1,1.37.8,2.88,2.88,0,0,1-.57,3.67,4.27,4.27,0,0,1-2.68.77H38.77Zm2.12,4h1.23a2.29,2.29,0,0,0,1.24-.26,1,1,0,0,0,.39-.88.89.89,0,0,0-.42-.83,2.77,2.77,0,0,0-1.33-.25H40.89Zm0,1.69v2.6h1.38a2,2,0,0,0,1.29-.34,1.22,1.22,0,0,0,.42-1c0-.83-.6-1.24-1.78-1.24Z"></path><path class="cls-4" d="M52.27,514.36a2.83,2.83,0,0,1,.71.07l-.16,2a2.18,2.18,0,0,0-.61-.07,2.22,2.22,0,0,0-1.56.51,1.88,1.88,0,0,0-.56,1.44v3.89H48v-7.64h1.58l.31,1.28H50a2.8,2.8,0,0,1,1-1A2.3,2.3,0,0,1,52.27,514.36Z"></path><path class="cls-4" d="M59.22,522.15l-.4-1h-.06a3.09,3.09,0,0,1-1.08.92,3.52,3.52,0,0,1-1.45.26,2.35,2.35,0,0,1-1.74-.63,2.43,2.43,0,0,1-.63-1.79,2,2,0,0,1,.85-1.8,5,5,0,0,1,2.57-.64l1.32,0v-.33a1,1,0,0,0-1.18-1.17,5.44,5.44,0,0,0-2.16.56L54.57,515a6.24,6.24,0,0,1,2.93-.69,3.65,3.65,0,0,1,2.36.67,2.51,2.51,0,0,1,.82,2v5.09Zm-.62-3.54-.8,0a2.54,2.54,0,0,0-1.36.32,1,1,0,0,0-.44.92c0,.59.34.88,1,.88a1.64,1.64,0,0,0,1.16-.41,1.47,1.47,0,0,0,.43-1.11Z"></path><path class="cls-4" d="M69.88,522.15H67.79v-4.46a2.22,2.22,0,0,0-.29-1.25,1.09,1.09,0,0,0-.94-.41,1.41,1.41,0,0,0-1.26.59,3.6,3.6,0,0,0-.39,1.93v3.6H62.82v-7.64h1.6l.28,1h.11a2.23,2.23,0,0,1,1-.83,3.26,3.26,0,0,1,1.39-.29,2.65,2.65,0,0,1,2,.73,2.88,2.88,0,0,1,.69,2.08Z"></path><path class="cls-4" d="M75.13,522.29q-3.57,0-3.57-3.92a4.18,4.18,0,0,1,1-3,3.66,3.66,0,0,1,2.78-1,5.37,5.37,0,0,1,2.38.52l-.61,1.62c-.33-.14-.64-.24-.92-.33a3.12,3.12,0,0,0-.85-.12c-1.08,0-1.63.77-1.63,2.31s.55,2.24,1.63,2.24a3.55,3.55,0,0,0,2.14-.67v1.79a3.46,3.46,0,0,1-1,.44A5.32,5.32,0,0,1,75.13,522.29Z"></path><path class="cls-4" d="M86.28,522.15H84.19v-4.46c0-1.11-.41-1.66-1.23-1.66a1.39,1.39,0,0,0-1.26.6,3.6,3.6,0,0,0-.39,1.92v3.6H79.22V511.51h2.09v2.17c0,.17,0,.57,0,1.19l-.05.61h.11a2.43,2.43,0,0,1,2.22-1.12,2.69,2.69,0,0,1,2,.73,2.89,2.89,0,0,1,.7,2.08Z"></path><path class="cls-4" d="M268,330.42h-2.09v-10h5.73v1.74H268v2.58h3.39v1.73H268Z"></path><path class="cls-4" d="M276.85,330.55a4,4,0,0,1-2.89-1,3.84,3.84,0,0,1-1-2.88,4.24,4.24,0,0,1,1-3,3.89,3.89,0,0,1,5.17-.13,3.48,3.48,0,0,1,.91,2.55v1H275a2,2,0,0,0,.52,1.39,1.83,1.83,0,0,0,1.38.5,6,6,0,0,0,1.31-.14,6.94,6.94,0,0,0,1.29-.46V330a4.78,4.78,0,0,1-1.17.41A7.35,7.35,0,0,1,276.85,330.55Zm-.29-6.44a1.31,1.31,0,0,0-1,.42,1.92,1.92,0,0,0-.43,1.2H278a1.75,1.75,0,0,0-.4-1.2A1.36,1.36,0,0,0,276.56,324.11Z"></path><path class="cls-4" d="M286.52,330.42l-.41-1h-.05a3,3,0,0,1-1.09.92,3.5,3.5,0,0,1-1.45.25,2.34,2.34,0,0,1-1.73-.63,2.4,2.4,0,0,1-.63-1.79,2,2,0,0,1,.85-1.79,4.84,4.84,0,0,1,2.56-.64l1.33,0v-.34a1,1,0,0,0-1.19-1.16,5.4,5.4,0,0,0-2.15.56l-.69-1.41a6.2,6.2,0,0,1,2.92-.69,3.63,3.63,0,0,1,2.36.67,2.44,2.44,0,0,1,.82,2v5.1Zm-.62-3.54-.81,0a2.62,2.62,0,0,0-1.35.33,1,1,0,0,0-.44.92c0,.58.33.88,1,.88a1.6,1.6,0,0,0,1.16-.42,1.47,1.47,0,0,0,.43-1.11Z"></path><path class="cls-4" d="M293.34,328.89a4.52,4.52,0,0,0,1.31-.24v1.55a4.56,4.56,0,0,1-1.91.35,2.36,2.36,0,0,1-1.83-.63,2.75,2.75,0,0,1-.57-1.9v-3.68h-1v-.88l1.14-.7.61-1.61h1.33v1.62h2.14v1.57h-2.14V328a.8.8,0,0,0,.25.66A1,1,0,0,0,293.34,328.89Z"></path><path class="cls-4" d="M301.61,330.42l-.28-1h-.11a2.19,2.19,0,0,1-1,.82,3.16,3.16,0,0,1-1.4.29,2.66,2.66,0,0,1-2-.72,2.88,2.88,0,0,1-.69-2.07v-5h2.09v4.47a2.2,2.2,0,0,0,.29,1.24,1.09,1.09,0,0,0,.94.41,1.4,1.4,0,0,0,1.26-.58,3.64,3.64,0,0,0,.39-1.94v-3.6h2.09v7.65Z"></path><path class="cls-4" d="M309.66,322.63a3.55,3.55,0,0,1,.71.06l-.16,2a2.65,2.65,0,0,0-2.17.44,1.86,1.86,0,0,0-.56,1.44v3.89H305.4v-7.65H307l.3,1.29h.11a2.82,2.82,0,0,1,1-1A2.36,2.36,0,0,1,309.66,322.63Z"></path><path class="cls-4" d="M315.21,330.55a3.93,3.93,0,0,1-2.88-1,3.85,3.85,0,0,1-1-2.88,4.24,4.24,0,0,1,1-3,3.9,3.9,0,0,1,5.18-.13,3.51,3.51,0,0,1,.9,2.55v1H313.4a2,2,0,0,0,.53,1.39,1.83,1.83,0,0,0,1.38.5,6,6,0,0,0,1.3-.14,6.94,6.94,0,0,0,1.29-.46V330a4.64,4.64,0,0,1-1.17.41A7.29,7.29,0,0,1,315.21,330.55Zm-.29-6.44a1.33,1.33,0,0,0-1,.42,2,2,0,0,0-.43,1.2h2.92a1.7,1.7,0,0,0-.4-1.2A1.36,1.36,0,0,0,314.92,324.11Z"></path><path class="cls-4" d="M329.73,322.66a2.35,2.35,0,0,1-.57,1.59,2.9,2.9,0,0,1-1.6.9v0a3.21,3.21,0,0,1,1.84.74,2.06,2.06,0,0,1,.62,1.57,2.67,2.67,0,0,1-1,2.25,4.76,4.76,0,0,1-3,.8,7.27,7.27,0,0,1-2.89-.54v-1.79a6.66,6.66,0,0,0,1.28.47,5.1,5.1,0,0,0,1.38.19,2.69,2.69,0,0,0,1.55-.36,1.29,1.29,0,0,0,.49-1.14,1,1,0,0,0-.57-1,4.33,4.33,0,0,0-1.83-.29h-.76v-1.62h.77a3.49,3.49,0,0,0,1.7-.31,1.09,1.09,0,0,0,.54-1c0-.75-.48-1.13-1.42-1.13a3.27,3.27,0,0,0-1,.16,5,5,0,0,0-1.13.57l-1-1.46a5.5,5.5,0,0,1,3.27-1,4.21,4.21,0,0,1,2.45.63A2,2,0,0,1,329.73,322.66Z"></path><path class="cls-4" d="M161.42,395.78h-2.08v-10h5.72v1.74h-3.64v2.58h3.39v1.72h-3.39Z"></path><path class="cls-4" d="M170.31,395.91a3.93,3.93,0,0,1-2.88-1,3.85,3.85,0,0,1-1-2.88,4.24,4.24,0,0,1,1-3A3.43,3.43,0,0,1,170,388a3.38,3.38,0,0,1,2.52.92,3.51,3.51,0,0,1,.9,2.55v1H168.5a2,2,0,0,0,.53,1.39,1.87,1.87,0,0,0,1.38.5,6.12,6.12,0,0,0,1.31-.14,6.86,6.86,0,0,0,1.28-.46v1.61a4.51,4.51,0,0,1-1.17.41A7.29,7.29,0,0,1,170.31,395.91Zm-.29-6.44a1.33,1.33,0,0,0-1,.42,2,2,0,0,0-.43,1.2h2.93a1.75,1.75,0,0,0-.41-1.2A1.36,1.36,0,0,0,170,389.47Z"></path><path class="cls-4" d="M180,395.78l-.4-1h-.06a3.2,3.2,0,0,1-1.08.92,3.53,3.53,0,0,1-1.45.25,2.35,2.35,0,0,1-1.74-.63,2.41,2.41,0,0,1-.63-1.79,2,2,0,0,1,.85-1.79,4.9,4.9,0,0,1,2.57-.64l1.32,0v-.34a1,1,0,0,0-1.18-1.16,5.58,5.58,0,0,0-2.16.55l-.69-1.4a6.24,6.24,0,0,1,2.93-.69,3.65,3.65,0,0,1,2.36.67,2.47,2.47,0,0,1,.82,2v5.1Zm-.62-3.55-.8,0a2.63,2.63,0,0,0-1.36.33,1,1,0,0,0-.44.92c0,.58.34.88,1,.88a1.59,1.59,0,0,0,1.16-.42,1.47,1.47,0,0,0,.43-1.11Z"></path><path class="cls-4" d="M186.8,394.25a4.46,4.46,0,0,0,1.31-.24v1.55a4.5,4.5,0,0,1-1.91.35,2.35,2.35,0,0,1-1.82-.63,2.75,2.75,0,0,1-.57-1.9V389.7h-1v-.88l1.15-.7.6-1.61h1.33v1.62H188v1.57h-2.14v3.68a.84.84,0,0,0,.25.66A1,1,0,0,0,186.8,394.25Z"></path><path class="cls-4" d="M195.07,395.78l-.28-1h-.11a2.19,2.19,0,0,1-1,.82,3.13,3.13,0,0,1-1.4.29,2.69,2.69,0,0,1-2-.72,2.92,2.92,0,0,1-.68-2.07v-5h2.08v4.47a2.12,2.12,0,0,0,.3,1.24,1.07,1.07,0,0,0,.93.41,1.41,1.41,0,0,0,1.27-.58,3.64,3.64,0,0,0,.39-1.94v-3.6h2.08v7.65Z"></path><path class="cls-4" d="M203.13,388a3.44,3.44,0,0,1,.7.06l-.16,2a2.13,2.13,0,0,0-.61-.07,2.22,2.22,0,0,0-1.56.51,1.85,1.85,0,0,0-.55,1.44v3.89h-2.09v-7.65h1.58l.31,1.29h.1a2.91,2.91,0,0,1,1-1A2.37,2.37,0,0,1,203.13,388Z"></path><path class="cls-4" d="M208.68,395.91a4,4,0,0,1-2.89-1,3.85,3.85,0,0,1-1-2.88,4.24,4.24,0,0,1,1-3,3.43,3.43,0,0,1,2.66-1.05,3.38,3.38,0,0,1,2.52.92,3.51,3.51,0,0,1,.9,2.55v1h-4.92a2,2,0,0,0,.52,1.39,1.87,1.87,0,0,0,1.38.5,6.12,6.12,0,0,0,1.31-.14,6.61,6.61,0,0,0,1.28-.46v1.61a4.51,4.51,0,0,1-1.17.41A7.25,7.25,0,0,1,208.68,395.91Zm-.3-6.44a1.34,1.34,0,0,0-1,.42,2,2,0,0,0-.43,1.2h2.93a1.75,1.75,0,0,0-.4-1.2A1.37,1.37,0,0,0,208.38,389.47Z"></path><path class="cls-4" d="M223.58,395.78h-7v-1.47l2.51-2.54c.75-.76,1.23-1.29,1.46-1.58a3.53,3.53,0,0,0,.49-.82,2.08,2.08,0,0,0,.15-.78,1.12,1.12,0,0,0-.33-.89,1.28,1.28,0,0,0-.89-.3,2.5,2.5,0,0,0-1.12.27,5.83,5.83,0,0,0-1.15.76l-1.14-1.36a7.34,7.34,0,0,1,1.22-.89,4.47,4.47,0,0,1,1.06-.4,5.07,5.07,0,0,1,1.28-.14,3.79,3.79,0,0,1,1.66.34,2.61,2.61,0,0,1,1.11,1,2.5,2.5,0,0,1,.4,1.41,3.44,3.44,0,0,1-.24,1.29,5.19,5.19,0,0,1-.75,1.24,17.26,17.26,0,0,1-1.8,1.81l-1.28,1.21v.1h4.35Z"></path><path class="cls-4" d="M68.8,483.67H66.72v-10h5.73v1.74H68.8V478h3.39v1.73H68.8Z"></path><path class="cls-4" d="M77.7,483.81a4,4,0,0,1-2.89-1,3.86,3.86,0,0,1-1-2.88,4.24,4.24,0,0,1,1-3,3.43,3.43,0,0,1,2.66-1.05,3.34,3.34,0,0,1,2.52.92,3.5,3.5,0,0,1,.9,2.55v1H75.88a2,2,0,0,0,.53,1.39,1.87,1.87,0,0,0,1.38.5,5.53,5.53,0,0,0,1.31-.15,6,6,0,0,0,1.28-.45v1.61a4.91,4.91,0,0,1-1.17.41A7.25,7.25,0,0,1,77.7,483.81Zm-.3-6.44a1.33,1.33,0,0,0-1,.42,2,2,0,0,0-.43,1.19h2.93a1.74,1.74,0,0,0-.41-1.19A1.36,1.36,0,0,0,77.4,477.37Z"></path><path class="cls-4" d="M87.36,483.67l-.4-1H86.9a3,3,0,0,1-1.08.92,3.52,3.52,0,0,1-1.45.26,2.37,2.37,0,0,1-1.74-.63,2.43,2.43,0,0,1-.63-1.79,2,2,0,0,1,.85-1.79,4.9,4.9,0,0,1,2.57-.64l1.33,0v-.34a1,1,0,0,0-1.19-1.16,5.44,5.44,0,0,0-2.16.55l-.69-1.41a6.24,6.24,0,0,1,2.93-.69,3.7,3.7,0,0,1,2.36.67,2.51,2.51,0,0,1,.82,2v5.09Zm-.61-3.54-.81,0a2.56,2.56,0,0,0-1.35.33,1,1,0,0,0-.45.91c0,.59.34.89,1,.89a1.59,1.59,0,0,0,1.16-.42,1.48,1.48,0,0,0,.44-1.11Z"></path><path class="cls-4" d="M94.18,482.15a4.52,4.52,0,0,0,1.32-.24v1.55a4.74,4.74,0,0,1-1.92.35,2.35,2.35,0,0,1-1.82-.63,2.77,2.77,0,0,1-.57-1.9V477.6h-1v-.89l1.15-.69.6-1.62h1.33V476h2.14v1.57H93.27v3.68a.84.84,0,0,0,.25.66A1,1,0,0,0,94.18,482.15Z"></path><path class="cls-4" d="M102.46,483.67l-.28-1h-.11a2.24,2.24,0,0,1-.95.82,3.32,3.32,0,0,1-1.41.29,2.69,2.69,0,0,1-2-.72A2.93,2.93,0,0,1,97,481v-5h2.09v4.46a2.14,2.14,0,0,0,.29,1.25,1.09,1.09,0,0,0,.94.41,1.41,1.41,0,0,0,1.26-.59,3.57,3.57,0,0,0,.39-1.93V476h2.09v7.64Z"></path><path class="cls-4" d="M110.51,475.89a3.37,3.37,0,0,1,.7.06l-.15,1.95a2.77,2.77,0,0,0-.62-.06,2.24,2.24,0,0,0-1.56.51,1.85,1.85,0,0,0-.55,1.43v3.89h-2.09V476h1.58l.31,1.29h.1a2.91,2.91,0,0,1,1-1A2.4,2.4,0,0,1,110.51,475.89Z"></path><path class="cls-4" d="M116.06,483.81a4,4,0,0,1-2.89-1,3.86,3.86,0,0,1-1-2.88,4.24,4.24,0,0,1,1-3,3.41,3.41,0,0,1,2.65-1.05,3.34,3.34,0,0,1,2.52.92,3.46,3.46,0,0,1,.91,2.55v1h-4.93a2,2,0,0,0,.52,1.39,1.87,1.87,0,0,0,1.38.5,5.47,5.47,0,0,0,1.31-.15,6.22,6.22,0,0,0,1.29-.45v1.61a5.24,5.24,0,0,1-1.17.41A7.35,7.35,0,0,1,116.06,483.81Zm-.29-6.44a1.31,1.31,0,0,0-1,.42,1.91,1.91,0,0,0-.43,1.19h2.92a1.74,1.74,0,0,0-.4-1.19A1.36,1.36,0,0,0,115.77,477.37Z"></path><path class="cls-4" d="M129.2,483.67h-2.11v-5.78l0-.95,0-1c-.35.35-.59.58-.73.69l-1.15.92-1-1.27,3.22-2.56h1.74Z"></path><path class="cls-4" d="M145.25,255.34h-2.08v-10h5.73v1.74h-3.65v2.57h3.39v1.73h-3.39Z"></path><path class="cls-4" d="M154.15,255.48a4,4,0,0,1-2.89-1,3.86,3.86,0,0,1-1-2.88,4.24,4.24,0,0,1,1-3,3.43,3.43,0,0,1,2.66-1.05,3.34,3.34,0,0,1,2.52.92,3.5,3.5,0,0,1,.9,2.55v1h-4.92a2,2,0,0,0,.52,1.39,1.87,1.87,0,0,0,1.38.5,5.53,5.53,0,0,0,1.31-.15,6,6,0,0,0,1.28-.45v1.61a4.91,4.91,0,0,1-1.17.41A8,8,0,0,1,154.15,255.48Zm-.3-6.44a1.33,1.33,0,0,0-1,.42,2,2,0,0,0-.43,1.19h2.93a1.74,1.74,0,0,0-.4-1.19A1.39,1.39,0,0,0,153.85,249Z"></path><path class="cls-4" d="M163.81,255.34l-.4-1h-.06a3,3,0,0,1-1.08.92,3.48,3.48,0,0,1-1.45.26,2.33,2.33,0,0,1-1.73-.63,2.39,2.39,0,0,1-.64-1.79,2,2,0,0,1,.85-1.79,4.9,4.9,0,0,1,2.57-.64l1.33,0v-.34a1,1,0,0,0-1.19-1.16,5.44,5.44,0,0,0-2.16.55l-.69-1.41a6.24,6.24,0,0,1,2.93-.69,3.69,3.69,0,0,1,2.36.67,2.48,2.48,0,0,1,.82,2v5.09Zm-.61-3.54-.81,0a2.56,2.56,0,0,0-1.35.33,1,1,0,0,0-.45.91c0,.59.34.89,1,.89a1.59,1.59,0,0,0,1.16-.42,1.48,1.48,0,0,0,.44-1.11Z"></path><path class="cls-4" d="M170.64,253.82a4.52,4.52,0,0,0,1.31-.24v1.55a4.74,4.74,0,0,1-1.92.35,2.35,2.35,0,0,1-1.82-.63,2.77,2.77,0,0,1-.57-1.9v-3.68h-1v-.89l1.15-.69.6-1.62h1.34v1.63h2.14v1.57h-2.14V253a.8.8,0,0,0,.25.66A1,1,0,0,0,170.64,253.82Z"></path><path class="cls-4" d="M178.91,255.34l-.28-1h-.11a2.24,2.24,0,0,1-1,.82,3.3,3.3,0,0,1-1.4.29,2.66,2.66,0,0,1-2-.72,2.88,2.88,0,0,1-.69-2.08v-5h2.09v4.46a2.14,2.14,0,0,0,.29,1.25,1.09,1.09,0,0,0,.94.41,1.41,1.41,0,0,0,1.26-.59,3.57,3.57,0,0,0,.39-1.93v-3.6h2.09v7.64Z"></path><path class="cls-4" d="M187,247.56a3.37,3.37,0,0,1,.7.06l-.15,1.95a2.77,2.77,0,0,0-.62-.06,2.21,2.21,0,0,0-1.55.51,1.82,1.82,0,0,0-.56,1.43v3.89h-2.09V247.7h1.58l.31,1.29h.1a2.91,2.91,0,0,1,1-1A2.4,2.4,0,0,1,187,247.56Z"></path><path class="cls-4" d="M192.51,255.48a3.93,3.93,0,0,1-2.88-1,3.83,3.83,0,0,1-1-2.88,4.24,4.24,0,0,1,1-3,3.9,3.9,0,0,1,5.18-.13,3.5,3.5,0,0,1,.9,2.55v1H190.7a2,2,0,0,0,.53,1.39,1.84,1.84,0,0,0,1.38.5,5.45,5.45,0,0,0,1.3-.15,6.22,6.22,0,0,0,1.29-.45v1.61a5.24,5.24,0,0,1-1.17.41A8.12,8.12,0,0,1,192.51,255.48Zm-.29-6.44a1.31,1.31,0,0,0-1,.42,1.91,1.91,0,0,0-.43,1.19h2.92a1.74,1.74,0,0,0-.4-1.19A1.36,1.36,0,0,0,192.22,249Z"></path><path class="cls-4" d="M207.64,253.27h-1.2v2.07h-2.07v-2.07H200.1V251.8l4.39-6.45h1.95v6.28h1.2Zm-3.27-1.64v-1.69q0-.44,0-1.23c0-.54,0-.85.06-.94h-.06a7.28,7.28,0,0,1-.6,1.09L202,251.63Z"></path><rect class="cls-5" x="92.29" y="390.36" width="3" height="16.17"></rect><polygon class="cls-5" points="101.08 391.34 86.5 391.34 93.79 384.05 101.08 391.34"></polygon><rect class="cls-3" x="41.54" y="6.31" width="3" height="36.47"></rect><polygon class="cls-3" points="50.32 7.29 35.75 7.29 43.03 0 50.32 7.29"></polygon><rect class="cls-2" x="143.04" y="344.91" width="3" height="15.84"></rect><polygon class="cls-2" points="151.83 345.89 137.25 345.89 144.54 338.6 151.83 345.89"></polygon><path class="cls-5" d="M80.36,464H54.47v-3H80.36a11.94,11.94,0,0,0,11.93-11.92V435.81h3v13.27A15,15,0,0,1,80.36,464Z"></path><polygon class="cls-5" points="86.5 436.79 101.08 436.79 93.79 429.5 86.5 436.79"></polygon><path class="cls-6" d="M181.87,236.73H55.5v-3H181.87a11.94,11.94,0,0,0,11.92-11.92V208.56h3v13.25A14.94,14.94,0,0,1,181.87,236.73Z"></path><polygon class="cls-6" points="188 209.54 202.58 209.54 195.29 202.25 188 209.54"></polygon><path class="cls-6" d="M196.79,177.31h-3V157.75a11.94,11.94,0,0,0-11.92-11.92H61.81v-3H181.87a15,15,0,0,1,14.92,14.92Z"></path><polygon class="cls-6" points="62.79 137.04 62.79 151.62 55.5 144.33 62.79 137.04"></polygon><path class="cls-1" d="M247.54,86.41h-3V66.85a11.94,11.94,0,0,0-11.92-11.92H61.81v-3H232.62a15,15,0,0,1,14.92,14.92Z"></path><polygon class="cls-1" points="62.79 46.14 62.79 60.72 55.5 53.43 62.79 46.14"></polygon><path class="cls-5" d="M95.29,361h-3V339.55a11.94,11.94,0,0,0-11.93-11.92H61.81v-3H80.36a15,15,0,0,1,14.93,14.92Z"></path><polygon class="cls-5" points="62.79 318.84 62.79 333.42 55.5 326.13 62.79 318.84"></polygon><path class="cls-2" d="M147,315.58h-3V294.1a11.94,11.94,0,0,0-11.92-11.92H61.81v-3h70.26A14.94,14.94,0,0,1,147,294.1Z"></path><polygon class="cls-2" points="62.79 273.39 62.79 287.97 55.5 280.68 62.79 273.39"></polygon><path class="cls-3" d="M43,453a9.47,9.47,0,1,1-9.47,9.47A9.47,9.47,0,0,1,43,453m0-3A12.47,12.47,0,1,0,55.5,462.48,12.47,12.47,0,0,0,43,450Z"></path><path class="cls-5" d="M93.79,362.11a9.47,9.47,0,1,1-9.47,9.47,9.47,9.47,0,0,1,9.47-9.47m0-3a12.47,12.47,0,1,0,12.46,12.47,12.47,12.47,0,0,0-12.46-12.47Z"></path><path class="cls-2" d="M144.54,362.11a9.47,9.47,0,1,1-9.47,9.47,9.48,9.48,0,0,1,9.47-9.47m0-3A12.47,12.47,0,1,0,157,371.58a12.47,12.47,0,0,0-12.47-12.47Z"></path><path class="cls-3" d="M43,316.66a9.47,9.47,0,1,1-9.47,9.47A9.47,9.47,0,0,1,43,316.66m0-3A12.47,12.47,0,1,0,55.5,326.13,12.47,12.47,0,0,0,43,313.66Z"></path><path class="cls-3" d="M43,271.21a9.47,9.47,0,1,1-9.47,9.47A9.47,9.47,0,0,1,43,271.21m0-3A12.47,12.47,0,1,0,55.5,280.68,12.47,12.47,0,0,0,43,268.21Z"></path><path class="cls-3" d="M43,225.76a9.47,9.47,0,1,1-9.47,9.47A9.47,9.47,0,0,1,43,225.76m0-3A12.47,12.47,0,1,0,55.5,235.23,12.47,12.47,0,0,0,43,222.76Z"></path><path class="cls-6" d="M195.29,180.31a9.47,9.47,0,1,1-9.47,9.47,9.48,9.48,0,0,1,9.47-9.47m0-3a12.47,12.47,0,1,0,12.47,12.47,12.47,12.47,0,0,0-12.47-12.47Z"></path><path class="cls-3" d="M43,134.86a9.47,9.47,0,1,1-9.47,9.47A9.47,9.47,0,0,1,43,134.86m0-3A12.47,12.47,0,1,0,55.5,144.33,12.47,12.47,0,0,0,43,131.86Z"></path><path class="cls-1" d="M246,89.41a9.47,9.47,0,1,1-9.47,9.47A9.48,9.48,0,0,1,246,89.41m0-3a12.47,12.47,0,1,0,12.47,12.47A12.47,12.47,0,0,0,246,86.41Z"></path><path class="cls-3" d="M43,44a9.47,9.47,0,1,1-9.47,9.46A9.47,9.47,0,0,1,43,44m0-3A12.47,12.47,0,1,0,55.5,53.43,12.46,12.46,0,0,0,43,41Z"></path><circle class="cls-7" cx="93.79" cy="417.03" r="12.47"></circle><path class="cls-7" d="M93.79,407.56A9.47,9.47,0,1,1,84.32,417a9.47,9.47,0,0,1,9.47-9.47m0-3A12.47,12.47,0,1,0,106.25,417a12.47,12.47,0,0,0-12.46-12.47Z"></path><path class="cls-5" d="M93.79,407.56A9.47,9.47,0,1,1,84.32,417a9.47,9.47,0,0,1,9.47-9.47m0-3A12.47,12.47,0,1,0,106.25,417a12.47,12.47,0,0,0-12.46-12.47Z"></path><path class="cls-2" d="M144.54,316.66a9.47,9.47,0,1,1-9.47,9.47,9.48,9.48,0,0,1,9.47-9.47m0-3A12.47,12.47,0,1,0,157,326.13a12.47,12.47,0,0,0-12.47-12.47Z"></path><rect class="cls-1" x="244.54" y="277.13" width="3" height="36.53"></rect><polygon class="cls-1" points="253.33 278.11 238.75 278.11 246.04 270.82 253.33 278.11"></polygon><rect class="cls-1" x="244.54" y="117.66" width="3" height="130.83"></rect><polygon class="cls-1" points="253.33 118.64 238.75 118.64 246.04 111.35 253.33 118.64"></polygon><path class="cls-1" d="M246,248.88a9.47,9.47,0,1,1-9.47,9.47,9.48,9.48,0,0,1,9.47-9.47m0-3a12.47,12.47,0,1,0,12.47,12.47A12.47,12.47,0,0,0,246,245.88Z"></path><path class="cls-1" d="M246,316.66a9.47,9.47,0,1,1-9.47,9.47,9.48,9.48,0,0,1,9.47-9.47m0-3a12.47,12.47,0,1,0,12.47,12.47A12.47,12.47,0,0,0,246,313.66Z"></path></svg> 